<?xml version="1.0" encoding="UTF-8" standalone="no"?>
<!-- Created with Inkscape (http://www.inkscape.org/) -->

<svg
   width="210mm"
   height="297mm"
   viewBox="0 0 210 297"
   version="1.1"
   id="svg4629"
   inkscape:version="1.1 (c68e22c387, 2021-05-23)"
   sodipodi:docname="clip mask.svg"
   xmlns:inkscape="http://www.inkscape.org/namespaces/inkscape"
   xmlns:sodipodi="http://sodipodi.sourceforge.net/DTD/sodipodi-0.dtd"
   xmlns="http://www.w3.org/2000/svg"
   xmlns:svg="http://www.w3.org/2000/svg">
  <sodipodi:namedview
     id="namedview4631"
     pagecolor="#ffffff"
     bordercolor="#666666"
     borderopacity="1.0"
     inkscape:pageshadow="2"
     inkscape:pageopacity="0.0"
     inkscape:pagecheckerboard="0"
     inkscape:document-units="mm"
     showgrid="false"
     inkscape:zoom="0.33317901"
     inkscape:cx="409.68967"
     inkscape:cy="577.76748"
     inkscape:window-width="1920"
     inkscape:window-height="1017"
     inkscape:window-x="3832"
     inkscape:window-y="-8"
     inkscape:window-maximized="1"
     inkscape:current-layer="layer1" />
  <defs
     id="defs4626" />
  <g
     inkscape:label="Layer 1"
     inkscape:groupmode="layer"
     id="layer1">
     <clipPath id="paint-effect">
    <path
       id="path1344"
       style="fill:#191716;fill-opacity:1;fill-rule:nonzero;stroke:none;stroke-width:0.0377433"
       d="m 189.95709,61.666529 c -0.99642,-0.29628 -2.0004,-0.60351 -3.01569,-0.8998 0.89451,-0.0596 1.78903,-0.13399 2.68355,-0.21853 2.9704,-0.27515 3.92153,-0.95604 2.25328,-2.13779 -1.64184,-1.1606 -4.16687,-1.77091 -6.99007,-2.12721 -0.43782,-0.11663 -0.84923,-0.28232 -1.31724,-0.34573 -2.86095,-0.39517 -3.96305,-0.5435 -3.76301,-1.05832 0.19626,-0.0744 0.39253,-0.13777 0.61521,-0.18004 1.70223,-0.33139 1.21911,1.16778 3.1176,0.9032 0.97756,-0.13776 2.16647,-0.0389 2.33254,-0.93151 -1.85697,0.0249 -2.8081,-0.94886 -4.7934,-0.95226 0.16607,-0.1238 0.34346,-0.25401 0.53973,-0.39517 0.67938,0.0951 1.36253,0.19022 2.04569,0.28571 0.0793,0.34913 0.44159,0.7126 1.21156,0.5854 1.03416,-0.16569 0.034,-0.51859 0.0377,-0.79374 2.07211,-0.2291 4.43107,0.4801 6.50695,-0.43367 -1.2493,-1.77469 -5.26897,-1.35121 -7.60906,-2.18006 -0.29817,-0.25778 -0.60011,-0.51519 -0.89829,-0.77298 0.84168,-0.0317 1.94756,-0.0351 2.02682,-0.49708 0.117,-0.66353 -1.31347,-0.57861 -2.19289,-0.74468 -0.008,-0.13398 0.034,-0.26797 0.12456,-0.39857 0.26797,-0.0106 0.5133,-0.0528 0.74731,-0.11285 0.0944,-0.0106 0.18495,-0.0211 0.2793,-0.0317 2.61562,0.12002 4.92551,-0.47972 7.62038,-0.5152 -0.23023,-0.39479 -0.61144,-0.65598 -1.07191,-0.83941 -0.004,-0.0528 -0.0151,-0.10946 -0.0415,-0.17287 -0.2944,-0.68806 -0.3246,-1.52407 -2.559,-1.66146 -0.37744,-0.0249 -0.74732,-0.0638 -1.11721,-0.10945 0.47557,-0.0672 1.13985,-0.10229 1.60032,-0.13059 0.52841,-0.0317 1.06436,-0.0457 1.59277,-0.0672 -0.12833,-0.2325 -0.12455,-0.6171 -0.40385,-0.66994 -5.07648,-0.95982 -9.97557,-2.311033 -15.76162,-1.876983 -0.15475,-0.14833 -0.32459,-0.31025 -0.51331,-0.50085 3.26102,-0.26458 6.59376,-0.28572 9.50755,0.10908 3.48748,0.46952 5.86531,-1.07946 9.20182,-0.5503 -0.66805,-0.37026 -1.40027,-0.64541 -2.10985,-0.906605 0.71335,-0.12682 1.46822,-0.2608 2.33254,-0.38083 -1.72865,-0.51859 -3.1327,-0.95264 -3.09118,-1.69694 0.0151,-0.0389 0.0226,-0.0774 0.0189,-0.11625 0.004,-0.0143 0.004,-0.0283 0.0113,-0.0423 0.26798,-0.86093 3.15535,-0.20495 3.4271,-1.16438 -0.8832,-0.43405 -2.10608,-0.18683 -3.06853,-0.38083 -2.57787,-0.52199 -5.15197,-1.03719 -7.78646,-1.42519 1.94756,0.10945 3.89889,0.12682 5.84267,-0.26836 -1.32856,-0.39857 -2.67977,-0.582 -4.01589,-0.78996 -0.70202,-0.10606 -1.54747,-0.35668 -1.17382,-0.68807 1.95134,-1.74298 -1.37763,-1.74978 -3.2195,-2.12721 -2.8534,-0.582 -5.77096,-1.08323 -8.72249,-1.52747 4.78208,-0.18344 9.28486,-0.0143 13.83671,0.82167 1.17382,0.21551 2.54013,0.64201 4.72924,0.3529 -8.80175,-2.790367 -17.81486,-3.975877 -27.69606,-3.764137 l -0.21137,0.0355 c -5.85399,-0.91037 -11.93821,-0.95982 -18.00734,-1.07607 0.35478,-0.45179 1.29082,-0.36347 2.01927,-0.46915 2.43444,0 4.86511,0 7.37882,0 -0.24156,-0.75147 -0.36234,-1.7109 -2.29102,-1.1255 -1.62674,0.49745 -2.8685,0.26118 -4.40088,0.25061 -5.58978,-0.0423 -11.23996,-0.56804 -16.74672,0.32082 -3.69129,-0.31742 -7.32598,-0.28572 -11.08899,-0.14456 -0.91339,-0.0562 -1.83055,-0.11662 -2.74394,-0.17626 -4.91418,-0.32459 -9.87366,-0.50802 -14.84068,-0.65975 -5.838892,-0.72316 -11.787243,-1.15344 -17.886566,-0.57144 -9.111243,-0.3529 -18.226259,-0.63522 -27.141236,0.97718 -5.314262,0.32459 -10.439808,1.22062 -12.968612,2.32839 1.973977,0.33516 3.596941,-0.54011 5.261422,-0.22231 1.049265,0.20079 0.207588,0.51482 -0.05284,0.7726 -1.728645,0.34913 -3.461064,0.70203 -5.193483,1.05116 2.075883,-0.10229 3.62336,0.493677 5.457687,0.860917 -1.834327,-0.36724 -3.381804,-0.963207 -5.461462,-0.860917 -1.509733,0.349117 -2.475963,1.058317 -4.427293,1.192307 1.573897,0.68089 3.627134,0.0249 4.585815,0.85375 -0.237783,0.7126 -1.094557,0.8715 -2.615613,0.87489 -4.502781,0.0106 -8.239371,0.99831 -12.881802,2.3952 4.721692,0.26118 7.952522,0.93528 10.854985,1.95812 0.951132,0.33516 1.577671,0.66692 0.879419,1.22779 -0.456694,0.37026 -0.739769,0.75826 -0.739769,1.19231 -1.215336,0.18004 -1.973977,0.47632 -0.754867,1.4569 0.117004,0.0917 0.154748,0.17286 0.147199,0.24684 -2.132499,0.39177 -4.246126,0.843185 -6.454111,0.994915 -3.20441,0.21891 -3.43087,1.997 -6.303138,2.240073 -0.177394,0.0143 -0.354787,0.0249 -0.532181,0.0355 -2.49106,1.07229 -4.714143,2.1944 -3.294994,3.97588 l -0.33969,0.12342 -0.430274,-0.0249 c -0.630313,0.33894 -2.449542,0.61409 -1.573897,1.0621 1.268176,0.65598 2.358959,1.42519 3.547874,2.13778 -0.520858,0.0389 -1.068136,0.10568 -1.649384,0.22231 -0.260429,0.0528 -0.966229,-0.44122 -1.528605,-0.64201 -0.618991,-0.22571 -1.298371,-0.21174 -1.943782,-0.004 -0.996424,1.34782 -1.30592,2.41671 2.057012,3.40445 1.000198,0.29629 2.004171,0.60314 3.019467,0.89942 -0.894517,0.06 -1.789034,0.13777 -2.679777,0.21892 -2.970401,0.27514 -3.925307,0.95603 -2.257052,2.13778 1.641835,1.16061 4.166865,1.77431 6.990067,2.12721 0.437822,0.12003 0.845451,0.28232 1.321017,0.34913 2.860945,0.39177 3.959276,0.5435 3.759236,1.05832 -0.192491,0.0744 -0.396305,0.13777 -0.615216,0.18004 -1.702225,0.32799 -1.21911,-1.16778 -3.1176,-0.9032 -0.981327,0.13776 -2.166468,0.0389 -2.336313,0.93151 1.860747,-0.0283 2.811879,0.94547 4.797179,0.94886 -0.162297,0.12342 -0.343465,0.25402 -0.53973,0.39518 -0.67938,-0.0951 -1.35876,-0.19061 -2.045689,-0.28232 -0.07549,-0.3529 -0.437823,-0.7126 -1.211561,-0.58918 -1.034168,0.16947 -0.03397,0.52237 -0.03774,0.79374 -2.072109,0.22948 -4.431068,-0.47632 -6.506951,0.43405 1.249304,1.77432 5.26897,1.35461 7.605283,2.18006 0.305721,0.25779 0.603893,0.51519 0.902065,0.7726 -0.841676,0.0355 -1.947556,0.0389 -2.030591,0.50086 -0.11323,0.66353 1.321017,0.5786 2.196662,0.7409 0.0075,0.13776 -0.03397,0.26836 -0.120779,0.39857 -0.267977,0.011 -0.517083,0.0532 -0.747318,0.11663 -0.09813,0.0106 -0.188716,0.0211 -0.283075,0.0317 -2.615613,-0.12342 -4.925506,0.47972 -7.616606,0.5152 0.22646,0.39479 0.607668,0.65598 1.068137,0.83601 0.0038,0.0562 0.01887,0.11286 0.04152,0.17626 0.298173,0.68807 0.324593,1.52408 2.558999,1.66184 0.377433,0.0208 0.747318,0.0634 1.117203,0.10908 -0.475566,0.0634 -1.139849,0.10229 -1.600318,0.13059 -0.524632,0.0317 -1.064362,0.0457 -1.592769,0.0672 0.128328,0.2291 0.124553,0.6171 0.407628,0.67032 5.076479,0.95943 9.971791,2.30687 15.757845,1.8732 0.154747,0.14795 0.324592,0.31403 0.513309,0.50085 -3.261024,0.26459 -6.593761,0.28572 -9.507547,-0.10568 -3.487485,-0.47292 -5.865315,1.07569 -9.201827,0.5503 0.668058,0.37026 1.400278,0.64541 2.106079,0.90282 -0.709575,0.1272 -1.468216,0.26458 -2.328764,0.38461 1.728645,0.51859 3.132697,0.94924 3.094954,1.69316 -0.01887,0.0389 -0.02642,0.0778 -0.02265,0.12003 -0.0038,0.0143 -0.0038,0.0249 -0.01132,0.0389 -0.267978,0.86093 -3.151569,0.20457 -3.423321,1.16778 0.87942,0.43028 2.106078,0.18343 3.064759,0.37743 2.57787,0.522 5.151966,1.03719 7.790225,1.42519 -1.95133,-0.10945 -3.902661,-0.12681 -5.846443,0.26798 1.328565,0.39895 2.679777,0.58578 4.019666,0.79035 0.698251,0.10945 1.543702,0.35629 1.170043,0.69145 -1.951331,1.73922 1.373858,1.74639 3.219507,2.12382 2.853397,0.5854 5.770957,1.08324 8.722486,1.53087 -4.782081,0.18004 -9.281087,0.011 -13.836708,-0.82544 -1.170044,-0.21514 -2.540127,-0.63824 -4.729241,-0.34913 8.801747,2.78697 17.818631,3.97249 27.699837,3.76414 l 0.211363,-0.0355 c 5.850218,0.9066 11.938218,0.95982 18.003573,1.07267 -0.358562,0.45518 -1.290822,0.36686 -2.015494,0.47255 -2.434446,0 -4.865117,0 -7.382598,0 0.245332,0.75147 0.366111,1.71109 2.291021,1.12211 1.626738,-0.49406 2.868494,-0.26119 4.400874,-0.24722 5.589788,0.0389 11.236192,0.56803 16.74672,-0.32082 3.691298,0.31402 7.329756,0.28572 11.088993,0.14116 0.913389,0.0596 1.830552,0.11625 2.743941,0.17626 4.914183,0.32452 9.873656,0.5115 14.840676,0.66323 5.8389,0.71961 11.78725,1.15355 17.8828,0.57147 9.11502,0.35278 18.23381,0.63499 27.14878,-0.97718 5.31049,-0.3281 10.43604,-1.22035 12.96484,-2.3285 -1.97398,-0.33855 -3.59694,0.53634 -5.26142,0.21891 -1.04927,-0.19739 -0.20759,-0.51142 0.0528,-0.76921 1.73242,-0.35252 3.46484,-0.70202 5.19726,-1.05454 -2.07966,0.10228 -3.62336,-0.49406 -5.45769,-0.85753 1.83433,0.36347 3.37803,0.95981 5.46146,0.85753 1.50974,-0.34913 2.47219,-1.05493 4.4273,-1.19269 -1.57768,-0.67712 -3.63091,-0.0245 -4.58582,-0.85338 0.23023,-0.71259 1.09078,-0.87149 2.61184,-0.87527 4.50655,-0.007 8.24315,-0.99454 12.88558,-2.39142 -4.72547,-0.26118 -7.95253,-0.93867 -10.85499,-1.96152 -0.95491,-0.33516 -1.57767,-0.66353 -0.88319,-1.22779 0.45292,-0.37026 0.73977,-0.75487 0.73977,-1.18891 1.21911,-0.18344 1.97775,-0.47972 0.75486,-1.46067 -0.117,-0.0913 -0.15474,-0.16909 -0.1472,-0.24307 2.1325,-0.39517 4.24613,-0.84696 6.45412,-0.99869 3.20441,-0.21853 3.43087,-1.99662 6.30691,-2.24006 0.16984,-0.014 0.35101,-0.0211 0.5284,-0.0317 2.49484,-1.07229 4.71792,-2.1944 3.295,-3.9755 l 0.33969,-0.1272 0.43027,0.0283 c 0.63032,-0.33894 2.44954,-0.61748 1.5739,-1.0655 -1.26818,-0.65258 -2.35896,-1.42179 -3.54787,-2.13778 0.52085,-0.0355 1.06813,-0.10606 1.65315,-0.21891 0.26043,-0.0528 0.96623,0.43744 1.52483,0.64201 0.619,0.22231 1.2946,0.20835 1.94379,0 1.0002,-1.34366 1.30592,-2.41633 -2.06079,-3.40407" />
       </clipPath>
  </g>
</svg>
