<svg height="0" width="0">

<defs>
<clipPath id="svgPath">

<path fill = "#FFFFFF" stroke="#000000" stroke-width="1.5794" stroke-miterlimit="10"


d="m 184.76424,151.06573 c -0.99642,-0.29629 -2.00041,-0.60352 -3.01569,-0.8998 0.89453,-0.0596 1.78903,-0.13398 2.68356,-0.21855 2.9704,-0.27514 3.92152,-0.95604 2.25327,-2.13778 -1.64184,-1.16059 -4.16687,-1.77091 -6.99008,-2.12722 -0.43781,-0.11663 -0.84921,-0.28231 -1.31723,-0.3457 -2.86094,-0.39519 -3.96306,-0.54351 -3.76301,-1.05834 0.19627,-0.0743 0.39254,-0.13777 0.61521,-0.18005 1.70223,-0.33136 1.21912,1.16779 3.11761,0.90321 0.97753,-0.13777 2.16646,-0.0389 2.33252,-0.93149 -1.85695,0.0249 -2.8081,-0.94888 -4.79341,-0.95229 0.16608,-0.1238 0.34349,-0.254 0.53975,-0.39515 0.67937,0.0951 1.36253,0.1902 2.04568,0.28572 0.0793,0.34912 0.44159,0.71258 1.21156,0.58539 1.03417,-0.16571 0.034,-0.51861 0.0378,-0.79375 2.07211,-0.2291 4.43106,0.48009 6.50695,-0.43368 -1.24931,-1.77469 -5.26896,-1.3512 -7.60907,-2.18003 -0.29816,-0.25781 -0.6001,-0.5152 -0.89829,-0.77301 0.8417,-0.0317 1.94758,-0.0351 2.02682,-0.49707 0.11702,-0.66352 -1.31345,-0.57859 -2.19287,-0.74467 -0.008,-0.13399 0.034,-0.26797 0.12454,-0.39857 0.26797,-0.0106 0.51332,-0.0528 0.74732,-0.11284 0.0944,-0.0106 0.18494,-0.0212 0.27929,-0.0317 2.61562,0.12004 4.92551,-0.47971 7.6204,-0.5152 -0.23024,-0.39478 -0.61145,-0.65598 -1.07191,-0.83939 -0.004,-0.0529 -0.0151,-0.10945 -0.0415,-0.17287 -0.2944,-0.68805 -0.32462,-1.52408 -2.55903,-1.66146 -0.37742,-0.0249 -0.74731,-0.0638 -1.1172,-0.10945 0.47559,-0.0672 1.13985,-0.10229 1.60033,-0.1306 0.5284,-0.0317 1.06437,-0.0457 1.59277,-0.0672 -0.12832,-0.23252 -0.12454,-0.61711 -0.40386,-0.66995 -5.07648,-0.9598 -9.97556,-2.31103 -15.7616,-1.87698 -0.15476,-0.14833 -0.32462,-0.31025 -0.51332,-0.50086 3.26102,-0.26458 6.59376,-0.2857 9.50754,0.10909 3.4875,0.46953 5.86531,-1.07947 9.20184,-0.55031 -0.66808,-0.37026 -1.40028,-0.6454 -2.10987,-0.90659 0.71337,-0.12682 1.46823,-0.2608 2.33254,-0.38082 -1.72863,-0.51861 -3.13269,-0.95266 -3.09118,-1.69695 0.0151,-0.0389 0.0228,-0.0774 0.0188,-0.11624 0.004,-0.0143 0.004,-0.0283 0.0114,-0.0423 0.26797,-0.86092 3.15534,-0.20494 3.4271,-1.16438 -0.88321,-0.43404 -2.10609,-0.18682 -3.06856,-0.38084 -2.57786,-0.52199 -5.15194,-1.03719 -7.78645,-1.42517 1.94757,0.10945 3.8989,0.12681 5.84269,-0.26837 -1.32858,-0.39857 -2.67978,-0.58201 -4.0159,-0.78997 -0.70202,-0.10604 -1.54747,-0.35666 -1.17383,-0.68805 1.95133,-1.74299 -1.37763,-1.74979 -3.2195,-2.12722 -2.8534,-0.582 -5.77096,-1.08323 -8.72249,-1.52747 4.78208,-0.18343 9.28486,-0.0143 13.83673,0.82167 1.1738,0.21553 2.5401,0.64201 4.72921,0.3529 -8.80173,-2.79035 -17.81484,-3.97587 -27.69605,-3.76415 l -0.21135,0.0355 c -5.85401,-0.91035 -11.93824,-0.9598 -18.00735,-1.07606 0.35477,-0.45177 1.29082,-0.36346 2.01927,-0.46916 2.43443,0 4.8651,0 7.3788,0 -0.24153,-0.75147 -0.36232,-1.7109 -2.291,-1.12548 -1.62673,0.49744 -2.8685,0.26117 -4.40089,0.25061 -5.58977,-0.0423 -11.23995,-0.56803 -16.74673,0.32081 -3.69128,-0.31742 -7.32596,-0.28573 -11.08897,-0.14454 -0.9134,-0.0563 -1.83055,-0.11663 -2.74394,-0.17627 -4.91419,-0.32459 -9.87367,-0.50803 -14.840688,-0.65976 -5.838882,-0.72316 -11.787245,-1.15343 -17.886578,-0.57142 -9.111245,-0.35291 -18.226246,-0.63524 -27.141223,0.97715 -5.314262,0.3246 -10.439823,1.22063 -12.968605,2.32839 1.973977,0.33517 3.596931,-0.54009 5.261399,-0.2223 1.049284,0.20079 0.207592,0.51482 -0.05284,0.77261 -1.728629,0.34912 -3.461067,0.70202 -5.19348,1.05116 2.075895,-0.10229 3.623363,0.49366 5.457693,0.8609 -1.83433,-0.36724 -3.381798,-0.96319 -5.46145,-0.8609 -1.509739,0.34912 -2.475971,1.05831 -4.427299,1.19229 1.5739,0.68091 3.62712,0.0249 4.585811,0.85376 -0.237781,0.7126 -1.094555,0.87151 -2.615618,0.8749 -4.502785,0.0106 -8.239363,0.9983 -12.881795,2.39519 4.721675,0.26117 7.952528,0.93528 10.854981,1.95813 0.951124,0.33515 1.577657,0.66691 0.879422,1.22777 -0.456697,0.37029 -0.739775,0.75827 -0.739775,1.19232 -1.215337,0.18005 -1.973977,0.47633 -0.754856,1.4569 0.116998,0.0917 0.154728,0.17285 0.147187,0.24683 -2.132488,0.3918 -4.246112,0.8432 -6.454113,0.99491 -3.204395,0.21892 -3.430852,1.99703 -6.303142,2.24007 -0.177377,0.0143 -0.35478,0.0249 -0.532183,0.0355 -2.491052,1.07231 -4.714134,2.1944 -3.294988,3.9759 l -0.339672,0.12343 -0.430292,-0.0249 c -0.630317,0.33894 -2.449539,0.6141 -1.573901,1.06209 1.268175,0.65599 2.358972,1.42521 3.547878,2.13779 -0.520859,0.0389 -1.068123,0.1057 -1.649386,0.22232 -0.26043,0.0528 -0.966232,-0.44121 -1.528604,-0.64201 -0.618993,-0.22571 -1.298363,-0.21174 -1.943788,-0.004 -0.996421,1.34781 -1.305904,2.4167 2.05703,3.40445 1.000204,0.29628 2.004165,0.60314 3.019451,0.89942 -0.894503,0.06 -1.789033,0.13777 -2.679779,0.21892 -2.970398,0.27514 -3.925306,0.95604 -2.257028,2.13778 1.641818,1.16059 4.166843,1.77432 6.990053,2.12722 0.437832,0.12002 0.845449,0.28231 1.321011,0.34912 2.86094,0.39177 3.959278,0.5435 3.759253,1.0583 -0.192511,0.0744 -0.396319,0.13777 -0.615235,0.18005 -1.702224,0.32798 -1.219095,-1.16779 -3.117586,-0.9032 -0.981339,0.13776 -2.166461,0.0389 -2.336324,0.93151 1.860762,-0.0283 2.811886,0.94547 4.797187,0.94888 -0.162295,0.1234 -0.343455,0.254 -0.539723,0.39515 -0.679397,-0.0951 -1.358768,-0.1906 -2.045706,-0.28231 -0.07549,-0.3529 -0.437806,-0.7126 -1.211553,-0.58917 -1.034177,0.16947 -0.03397,0.52237 -0.03773,0.79375 -2.072111,0.22947 -4.431083,-0.47633 -6.506978,0.43405 1.24931,1.77429 5.268992,1.35459 7.60529,2.18003 0.305726,0.25781 0.603911,0.5152 0.90207,0.77261 -0.841666,0.0355 -1.947545,0.0389 -2.030598,0.50086 -0.113215,0.66352 1.321012,0.57862 2.196677,0.74091 0.0077,0.13777 -0.03397,0.26834 -0.120782,0.39857 -0.26797,0.0108 -0.517076,0.0532 -0.747316,0.11663 -0.09813,0.0106 -0.188727,0.0212 -0.283078,0.0317 -2.615618,-0.12343 -4.92551,0.47971 -7.616613,0.51519 0.226457,0.39479 0.607668,0.65598 1.068149,0.83601 0.0037,0.0563 0.01879,0.11287 0.04151,0.17626 0.298159,0.68808 0.324591,1.52408 2.558997,1.66185 0.377429,0.0209 0.747316,0.0634 1.117204,0.10909 -0.475563,0.0634 -1.139852,0.10229 -1.600333,0.13057 -0.524616,0.0317 -1.064339,0.0457 -1.592765,0.0672 0.128323,0.22911 0.124566,0.61709 0.407644,0.67033 5.076481,0.95943 9.971775,2.30687 15.757842,1.87319 0.154755,0.14796 0.324591,0.31401 0.513292,0.50086 -3.261016,0.26458 -6.593761,0.2857 -9.507538,-0.1057 -3.487472,-0.47292 -5.865309,1.07569 -9.201811,0.5503 0.668046,0.37026 1.400254,0.64543 2.106057,0.90282 -0.70956,0.12721 -1.4682,0.26458 -2.328757,0.38462 1.728655,0.51858 3.132693,0.94925 3.094964,1.69315 -0.01879,0.0389 -0.02646,0.0778 -0.02276,0.12004 -0.0037,0.0143 -0.0037,0.0249 -0.01138,0.0389 -0.26797,0.86092 -3.151584,0.20457 -3.423338,1.16779 0.879423,0.43026 2.106084,0.18341 3.064775,0.37743 2.577862,0.52199 5.151967,1.03719 7.790233,1.42517 -1.951329,-0.10945 -3.902683,-0.12681 -5.846445,0.26797 1.328552,0.39897 2.679779,0.58579 4.019656,0.79037 0.698262,0.10946 1.543711,0.35629 1.17004,0.69146 -1.951328,1.73921 1.373849,1.74638 3.219503,2.12381 2.853399,0.58539 5.770959,1.08323 8.722492,1.53088 -4.782079,0.18002 -9.28108,0.0109 -13.836702,-0.82545 -1.170041,-0.21516 -2.540133,-0.63825 -4.729242,-0.34914 8.801735,2.78699 17.818629,3.97248 27.699837,3.76415 l 0.211349,-0.0355 c 5.850229,0.90659 11.938238,0.95982 18.003573,1.07267 -0.358537,0.45519 -1.290796,0.36687 -2.01549,0.47255 -2.434431,0 -4.865106,0 -7.382589,0 0.245321,0.75146 0.366104,1.71108 2.291027,1.12209 1.626737,-0.49405 2.86848,-0.26117 4.400867,-0.2472 5.589799,0.0389 11.236193,0.56804 16.746723,-0.32083 3.691307,0.31403 7.329752,0.28572 11.089004,0.14115 0.913369,0.0596 1.830547,0.11626 2.743941,0.17627 4.914155,0.32451 9.873645,0.51149 14.840663,0.66323 5.8389,0.71961 11.78724,1.15356 17.88279,0.57147 9.11503,0.3528 18.23382,0.635 27.1488,-0.97718 5.3105,-0.32808 10.43604,-1.22034 12.96484,-2.32849 -1.97397,-0.33856 -3.59695,0.53633 -5.26142,0.21891 -1.04926,-0.1974 -0.20759,-0.51141 0.0528,-0.76922 1.73241,-0.3525 3.46485,-0.70202 5.19726,-1.05455 -2.07965,0.10229 -3.62336,-0.49406 -5.45769,-0.85751 1.83433,0.36345 3.37804,0.9598 5.46147,0.85751 1.50972,-0.34912 2.47219,-1.05492 4.42728,-1.19269 -1.57766,-0.67709 -3.63091,-0.0246 -4.58582,-0.85336 0.23024,-0.7126 1.0908,-0.87151 2.61184,-0.87527 4.50657,-0.007 8.24315,-0.99454 12.88558,-2.39141 -4.72546,-0.26119 -7.95253,-0.93869 -10.85498,-1.96154 -0.95491,-0.33515 -1.57766,-0.66352 -0.88318,-1.22777 0.45291,-0.37029 0.73975,-0.75488 0.73975,-1.18893 1.21912,-0.18344 1.97776,-0.47972 0.75488,-1.46066 -0.11703,-0.0913 -0.15476,-0.1691 -0.14722,-0.24307 2.13252,-0.39519 4.24614,-0.84696 6.45412,-0.9987 3.20442,-0.21852 3.43088,-1.99663 6.30692,-2.24007 0.16984,-0.014 0.351,-0.0212 0.5284,-0.0317 2.49484,-1.07227 4.71792,-2.1944 3.29499,-3.97549 l 0.3397,-0.12721 0.43027,0.0283 c 0.63031,-0.33894 2.44953,-0.61749 1.5739,-1.06548 -1.26818,-0.6526 -2.35895,-1.42179 -3.54788,-2.13778 0.52086,-0.0355 1.06815,-0.10607 1.65317,-0.21892 0.26043,-0.0528 0.96623,0.43744 1.52482,0.64201 0.61899,0.22231 1.2946,0.20834 1.94379,0 1.0002,-1.34366 1.30593,-2.41633 -2.06079,-3.40407"/>

</clipPath>
</defs>

</svg>