<?xml version="1.0" encoding="UTF-8" standalone="no"?>
<!-- Created with Inkscape (http://www.inkscape.org/) -->

<svg
   width="210mm"
   height="297mm"
   viewBox="0 0 210 297"
   version="1.1"
   id="svg5"
   inkscape:version="1.1 (c68e22c387, 2021-05-23)"
   sodipodi:docname="scroll.svg"
   xmlns:inkscape="http://www.inkscape.org/namespaces/inkscape"
   xmlns:sodipodi="http://sodipodi.sourceforge.net/DTD/sodipodi-0.dtd"
   xmlns="http://www.w3.org/2000/svg"
   xmlns:svg="http://www.w3.org/2000/svg">
  <sodipodi:namedview
     id="namedview7"
     pagecolor="#ffffff"
     bordercolor="#666666"
     borderopacity="1.0"
     inkscape:pageshadow="2"
     inkscape:pageopacity="0.0"
     inkscape:pagecheckerboard="0"
     inkscape:document-units="mm"
     showgrid="false"
     inkscape:zoom="0.66635802"
     inkscape:cx="389.43029"
     inkscape:cy="562.01019"
     inkscape:window-width="1920"
     inkscape:window-height="1017"
     inkscape:window-x="1912"
     inkscape:window-y="-8"
     inkscape:window-maximized="1"
     inkscape:current-layer="layer1" />
  <defs
     id="defs2" />
  <g
     inkscape:label="Layer 1"
     inkscape:groupmode="layer"
     id="layer1">
    <g
       id="g2627"
       style="fill:#b39155;fill-opacity:0.99000001"
       transform="matrix(0.8508753,0,0,0.8508753,-13.049417,-267.62826)">
      <path
         style="fill:#b39155;fill-opacity:0.99000001;fill-rule:nonzero;stroke:none"
         d="m 134.16406,449.80469 c -1.05859,-0.86328 -2.13281,-1.61328 -3.21484,-2.23047 -1.08985,-0.6211 -2.14453,-1.10547 -3.17188,-1.44531 -1.02343,-0.34375 -2.03515,-0.55079 -3.01562,-0.63282 -0.98438,-0.0781 -1.89844,-0.0117 -2.75,0.21094 -1.74609,0.44922 -3.06641,1.32031 -3.95703,2.60938 0.77344,-0.41016 1.55859,-0.71875 2.33984,-0.92188 1.39063,-0.35937 2.89063,-0.49609 4.51172,-0.40625 1.61719,0.0898 3.22266,0.39453 4.8125,0.91797 1.59375,0.53125 3.04687,1.21875 4.36719,2.08594 z m -3.07422,-0.0117 c -0.74609,0.44531 -1.48047,0.77344 -2.21093,0.96094 -0.66407,0.17187 -1.36719,0.19531 -2.125,0.0781 -0.75391,-0.11719 -1.41797,-0.35156 -1.99219,-0.71875 l -1.67578,-1.03906 c -1.17188,-0.73438 -2.30078,-0.96485 -3.38672,-0.67578 -0.92969,0.23828 -1.72266,0.73047 -2.375,1.47265 -0.66016,0.7461 -1.09766,1.63282 -1.32813,2.66797 -0.22656,1.03906 -0.20312,2.08985 0.0781,3.17188 0.29687,1.14843 0.86719,2.10937 1.69922,2.88672 0.32422,-0.36329 0.67578,-0.59375 1.05469,-0.69141 0.32812,-0.0859 0.60546,-0.10938 0.84375,-0.0586 0.23046,0.043 0.48437,0.16796 0.75781,0.35156 0.27734,0.1914 0.625,0.5039 1.05078,0.94531 0.66406,0.67188 1.30469,0.92969 1.91797,0.76953 0.49609,-0.125 0.85937,-0.42578 1.09765,-0.90625 0.23829,-0.48047 0.28516,-1.0039 0.13672,-1.5664 -0.16797,-0.64454 -0.52343,-1.10157 -1.07031,-1.36719 0.0703,0.27734 0.0547,0.51953 -0.0469,0.74219 -0.10547,0.22265 -0.26563,0.36328 -0.47266,0.41406 -0.24219,0.0664 -0.46094,0.0391 -0.65625,-0.082 -0.19531,-0.11328 -0.32813,-0.29297 -0.39453,-0.53125 -0.0586,-0.25782 -0.0273,-0.47657 0.11328,-0.67969 0.13281,-0.20703 0.34375,-0.33984 0.62891,-0.41406 0.48828,-0.12891 0.96093,-0.0195 1.42187,0.33593 0.45703,0.34375 0.76953,0.82813 0.92578,1.42969 0.14453,0.55078 0.14063,1.09375 -0.0195,1.60938 -0.15625,0.51953 -0.43359,0.96875 -0.84375,1.35156 -0.41406,0.37891 -0.91016,0.64453 -1.49219,0.79297 -0.97656,0.25781 -1.95703,0.1914 -2.96484,-0.1875 -1.00391,-0.38672 -1.89063,-1.02344 -2.65625,-1.91016 -0.76953,-0.88281 -1.3125,-1.91797 -1.61328,-3.08984 -0.29688,-1.14453 -0.35547,-2.3086 -0.17969,-3.48828 0.18359,-1.17969 0.57422,-2.27735 1.17188,-3.30078 0.60546,-1.01954 1.36718,-1.89844 2.30468,-2.63672 0.9336,-0.73438 1.98438,-1.25782 3.14453,-1.5625 0.98047,-0.25391 2.05079,-0.31641 3.19922,-0.20313 1.14844,0.11328 2.31641,0.41016 3.5,0.88672 1.17969,0.47266 2.30469,1.08594 3.375,1.84766 l 0.1211,-0.16407 c -0.41016,-0.30859 -0.76172,-0.64843 -1.03907,-1.02734 -0.28906,-0.37891 -0.48437,-0.78125 -0.59375,-1.21094 -0.14062,-0.54687 -0.0898,-1.05078 0.15625,-1.51953 0.23438,-0.46875 0.60157,-0.76562 1.10938,-0.89844 0.5625,-0.14453 1.08594,0.0156 1.5625,0.48438 -0.33594,-0.0508 -0.57813,-0.0508 -0.72266,-0.0195 -0.26172,0.0703 -0.44922,0.22265 -0.57422,0.46094 -0.125,0.23828 -0.15234,0.49609 -0.082,0.76562 0.15235,0.57813 0.66016,0.94531 1.53125,1.11328 0.86719,0.17188 1.49219,0.39844 1.86719,0.67578 0.38281,0.27344 0.64844,0.71094 0.80078,1.30469 0.125,0.49219 0.0703,0.94531 -0.16406,1.35156 -0.2461,0.40235 -0.625,0.71485 -1.14063,0.91016 1.60938,1.35547 2.64844,2.94531 3.125,4.76172 0.28125,1.10937 0.33203,2.08594 0.13672,2.92578 -0.39844,-0.0391 -0.79687,-0.17578 -1.1914,-0.41016 0.53906,-0.70703 0.66406,-1.60937 0.38671,-2.71093 -0.19531,-0.75 -0.53906,-1.48438 -1.03125,-2.19532 -0.49218,-0.71875 -1.08984,-1.37109 -1.79296,-1.97656 0.20703,0.78906 0.17578,1.4375 -0.0742,1.96094 -0.26172,0.51172 -0.71875,0.85937 -1.37891,1.02734 -0.35156,0.0937 -0.84766,0.0859 -1.46875,-0.004 -0.75,-0.0937 -1.29297,-0.10157 -1.62891,-0.0156 -0.45703,0.12109 -0.78906,0.34766 -1,0.66406 -0.20312,0.32422 -0.25,0.70313 -0.14062,1.13672 0.13672,0.51563 0.48437,0.96875 1.04297,1.3711 -0.97656,-0.2461 -1.58985,-0.83204 -1.82422,-1.75 -0.20312,-0.79688 -0.0547,-1.53516 0.46094,-2.21875 0.51562,-0.6875 1.41797,-1.38282 2.70312,-2.09375 l -0.0742,-0.30469"
         id="path743" />
      <path
         style="fill:#b39155;fill-opacity:0.99000001;fill-rule:nonzero;stroke:none"
         d="m 143.65234,449.99219 c 1.32032,-0.86719 2.77344,-1.55469 4.36719,-2.08594 1.58594,-0.52344 3.19141,-0.82813 4.80859,-0.91797 1.61719,-0.0898 3.1211,0.0469 4.51563,0.40625 0.78125,0.20313 1.5625,0.51172 2.33594,0.92188 -0.89063,-1.28907 -2.21094,-2.16016 -3.95703,-2.60938 -0.84766,-0.22266 -1.76563,-0.28906 -2.7461,-0.21094 -0.98437,0.082 -1.99609,0.28907 -3.01953,0.63282 -1.02344,0.33984 -2.07812,0.82421 -3.16797,1.44531 -1.08594,0.61719 -2.16015,1.36719 -3.21875,2.23047 z m 2.91797,0.10547 c 1.28516,0.71093 2.19141,1.40625 2.70313,2.09375 0.51562,0.68359 0.66797,1.42187 0.46093,2.21875 -0.23046,0.91796 -0.84765,1.5039 -1.82421,1.75 0.5625,-0.40235 0.90625,-0.85547 1.04296,-1.3711 0.11329,-0.43359 0.0625,-0.8125 -0.14062,-1.13672 -0.20703,-0.3164 -0.53906,-0.54297 -1,-0.66406 -0.33203,-0.0859 -0.875,-0.0781 -1.62891,0.0156 -0.62109,0.0898 -1.11718,0.0976 -1.46484,0.004 -0.66016,-0.16797 -1.12109,-0.51562 -1.37891,-1.02734 -0.2539,-0.52344 -0.28125,-1.17188 -0.0742,-1.96094 -0.70703,0.60547 -1.30078,1.25781 -1.79296,1.97656 -0.49219,0.71094 -0.83985,1.44532 -1.03516,2.19532 -0.28125,1.10156 -0.15234,2.0039 0.38672,2.71093 -0.39063,0.23438 -0.79297,0.3711 -1.19141,0.41016 -0.19531,-0.83984 -0.14453,-1.81641 0.14063,-2.92578 0.47265,-1.81641 1.51172,-3.40625 3.12109,-4.76172 -0.51172,-0.19531 -0.89453,-0.50781 -1.13672,-0.91016 -0.23828,-0.40625 -0.28906,-0.85937 -0.16406,-1.35156 0.14844,-0.59375 0.41797,-1.03125 0.80078,-1.30469 0.37109,-0.27734 0.99609,-0.5039 1.86719,-0.67578 0.87109,-0.16797 1.3789,-0.53515 1.52734,-1.11328 0.0703,-0.26953 0.043,-0.52734 -0.0781,-0.76562 -0.125,-0.23829 -0.31641,-0.39063 -0.57422,-0.46094 -0.14844,-0.0312 -0.38672,-0.0312 -0.72656,0.0195 0.48046,-0.46875 1,-0.62891 1.5664,-0.48438 0.50391,0.13282 0.8711,0.42969 1.10938,0.89844 0.24218,0.46875 0.29297,0.97266 0.15234,1.51953 -0.10937,0.42969 -0.30469,0.83203 -0.58984,1.21094 -0.28125,0.37891 -0.63282,0.71875 -1.04297,1.02734 l 0.125,0.16407 c 1.0664,-0.76172 2.1914,-1.375 3.375,-1.84766 1.17969,-0.47656 2.34765,-0.77344 3.5,-0.88672 1.14453,-0.11328 2.21484,-0.0508 3.19922,0.20313 1.16015,0.30468 2.20703,0.82812 3.14062,1.5625 0.94141,0.73828 1.70313,1.61718 2.30469,2.63672 0.60156,1.02343 0.99219,2.12109 1.17187,3.30078 0.17969,1.17968 0.11719,2.34375 -0.17968,3.48828 -0.30078,1.17187 -0.83985,2.20703 -1.61328,3.08984 -0.76563,0.88672 -1.65235,1.52344 -2.65625,1.91016 -1.00391,0.3789 -1.98829,0.44531 -2.96094,0.1875 -0.58594,-0.14844 -1.08203,-0.41406 -1.49219,-0.79297 -0.41016,-0.38281 -0.69141,-0.83203 -0.84766,-1.35156 -0.15625,-0.51563 -0.16015,-1.0586 -0.0195,-1.60938 0.16016,-0.60156 0.46875,-1.08594 0.92578,-1.42969 0.46094,-0.35546 0.9336,-0.46484 1.42579,-0.33593 0.28125,0.0742 0.49218,0.20703 0.625,0.41406 0.14062,0.20312 0.17578,0.42187 0.11328,0.67969 -0.0625,0.23828 -0.19922,0.41797 -0.39063,0.53125 -0.19922,0.12109 -0.41797,0.14843 -0.66015,0.082 -0.20704,-0.0508 -0.36719,-0.19141 -0.46875,-0.41406 -0.10157,-0.22266 -0.11719,-0.46485 -0.0469,-0.74219 -0.55078,0.26562 -0.90625,0.72265 -1.07031,1.36719 -0.14844,0.5625 -0.10156,1.08593 0.13281,1.5664 0.23828,0.48047 0.60547,0.78125 1.09766,0.90625 0.61328,0.16016 1.25781,-0.0976 1.92187,-0.76953 0.42578,-0.44141 0.76953,-0.75391 1.04688,-0.94531 0.27343,-0.1836 0.52343,-0.3086 0.76172,-0.35156 0.23828,-0.0508 0.51171,-0.0274 0.83984,0.0586 0.38281,0.0977 0.73437,0.32812 1.05859,0.69141 0.83203,-0.77735 1.39844,-1.73829 1.69532,-2.88672 0.28125,-1.08203 0.30859,-2.13282 0.0781,-3.17188 -0.23047,-1.03515 -0.66797,-1.92187 -1.32422,-2.66797 -0.65625,-0.74218 -1.44922,-1.23437 -2.375,-1.47265 -1.08984,-0.28907 -2.21875,-0.0586 -3.39062,0.67578 l -1.67188,1.03906 c -0.57812,0.36719 -1.24219,0.60156 -1.99609,0.71875 -0.75781,0.11719 -1.46094,0.0937 -2.1211,-0.0781 -0.73437,-0.1875 -1.46484,-0.51563 -2.21093,-0.96094 l -0.0781,0.30469"
         id="path745" />
      <path
         style="fill:#b39155;fill-opacity:0.99000001;fill-rule:nonzero;stroke:none"
         d="m 27.613281,458.01953 c 15.273438,-7.40234 31.539063,-6.17969 47.667969,-2.93359 12.675781,2.54687 25.25391,4.38672 38.21484,4.47656 0.69532,0.004 2.49219,-1.04297 0.95704,-1.05469 -29.566411,-0.21094 -59.777349,-14.6914 -88.195318,-0.92187 -1.375,0.66406 0.746094,0.73047 1.355469,0.43359"
         id="path747" />
      <path
         style="fill:#b39155;fill-opacity:0.99000001;fill-rule:nonzero;stroke:none"
         d="m 250.38281,458.01953 c -15.27344,-7.40234 -31.53515,-6.17969 -47.66797,-2.93359 -12.67578,2.54687 -25.2539,4.38672 -38.21484,4.47656 -0.69922,0.004 -2.49219,-1.04297 -0.96094,-1.05469 29.57031,-0.21094 59.78125,-14.6914 88.19922,-0.92187 1.375,0.66406 -0.74609,0.73047 -1.35547,0.43359"
         id="path749" />
    </g>
  </g>
</svg>
